<svg width="12" height="17" viewBox="0 0 12 17" fill="none" xmlns="http://www.w3.org/2000/svg">
<path d="M5.99999 1.83333C8.13066 1.83333 9.99999 3.57867 9.99999 5.568C9.99999 7.63 8.33799 10.3227 5.99999 14.0087C3.66199 10.3227 1.99999 7.63 1.99999 5.568C1.99999 3.57867 3.86932 1.83333 5.99999 1.83333ZM5.99999 0.5C3.20132 0.5 0.666656 2.76867 0.666656 5.568C0.666656 8.36667 2.97932 11.708 5.99999 16.5C9.02066 11.708 11.3333 8.36667 11.3333 5.568C11.3333 2.76867 8.79932 0.5 5.99999 0.5V0.5ZM5.99999 7.83333C4.89532 7.83333 3.99999 6.938 3.99999 5.83333C3.99999 4.72867 4.89532 3.83333 5.99999 3.83333C7.10466 3.83333 7.99999 4.72867 7.99999 5.83333C7.99999 6.938 7.10466 7.83333 5.99999 7.83333Z" fill="#8F9BB3"/>
</svg>
